<svg width="358" height="358" fill="none" xmlns="http://www.w3.org/2000/svg"><rect width="358" height="358" rx="100" fill="#E5E5EA"/><path fill-rule="evenodd" clip-rule="evenodd" d="M232.702 143.2c0 29.658-24.042 53.7-53.7 53.7s-53.7-24.042-53.7-53.7 24.042-53.7 53.7-53.7 53.7 24.042 53.7 53.7Zm-17.9 0c0 19.772-16.028 35.8-35.8 35.8s-35.8-16.028-35.8-35.8 16.028-35.8 35.8-35.8 35.8 16.028 35.8 35.8Z" fill="#000"/><path d="M179.002 223.75c-57.946 0-107.317 34.264-126.124 82.269a180.207 180.207 0 0 0 14.458 12.888c14.004-44.073 57.937-77.257 111.666-77.257 53.73 0 97.662 33.184 111.667 77.257a180.204 180.204 0 0 0 14.457-12.888c-18.807-48.005-68.178-82.269-126.124-82.269Z" fill="#000"/></svg>